<?xml version="1.0" standalone="no"?>
<!DOCTYPE svg PUBLIC "-//W3C//DTD SVG 20010904//EN"
 "http://www.w3.org/TR/2001/REC-SVG-20010904/DTD/svg10.dtd">
<svg version="1.0" xmlns="http://www.w3.org/2000/svg"
 width="16.000000pt" height="16.000000pt" viewBox="0 0 16.000000 16.000000"
 preserveAspectRatio="xMidYMid meet">
<metadata>
Created by potrace 1.11, written by Peter Selinger 2001-2013
</metadata>
<g transform="translate(0.000000,16.000000) scale(0.003200,-0.003200)"
fill="#000000" stroke="none">
<path d="M2410 4850 c0 -22 -64 -60 -100 -60 -14 0 -24 -9 -31 -28 -7 -22 -19
-31 -47 -38 -32 -8 -37 -13 -40 -41 -3 -26 -8 -33 -25 -33 -29 0 -43 -10 -51
-37 -4 -13 -18 -26 -32 -29 -15 -4 -30 -19 -39 -39 -10 -25 -21 -34 -41 -37
-21 -2 -30 -11 -39 -38 -8 -23 -19 -36 -36 -40 -15 -4 -25 -14 -27 -27 -4 -25
-19 -39 -47 -45 -14 -2 -21 -13 -25 -38 -4 -28 -10 -36 -30 -38 -34 -5 -50
-20 -50 -47 0 -18 -7 -25 -30 -30 -23 -5 -30 -12 -30 -30 0 -25 -15 -41 -45
-47 -12 -2 -24 -16 -31 -38 -6 -18 -27 -52 -45 -74 -19 -22 -36 -54 -39 -71
-4 -23 -11 -31 -31 -33 -20 -2 -28 -11 -35 -40 -7 -27 -15 -38 -34 -42 -20 -5
-29 -18 -46 -65 -13 -38 -29 -64 -42 -70 -14 -6 -24 -23 -28 -43 -5 -25 -14
-36 -34 -43 -28 -10 -50 -59 -50 -111 0 -20 -6 -27 -30 -31 -22 -5 -30 -12
-30 -28 0 -42 -23 -99 -47 -114 -12 -9 -23 -24 -23 -33 0 -10 -7 -40 -16 -65
-11 -34 -23 -49 -39 -53 -20 -5 -24 -14 -30 -70 -5 -52 -11 -68 -30 -80 -17
-11 -26 -30 -34 -78 -6 -34 -11 -76 -11 -93 0 -32 -26 -63 -53 -63 -16 0 -17
-28 -17 -319 l0 -319 29 -5 c34 -7 37 -15 46 -121 6 -68 11 -82 33 -103 21
-19 29 -40 37 -91 9 -59 13 -67 35 -72 27 -6 48 -51 49 -103 1 -22 8 -30 30
-38 22 -8 31 -19 35 -43 5 -27 12 -35 36 -40 25 -4 30 -10 30 -34 0 -22 22
-50 108 -136 63 -65 124 -116 148 -127 23 -11 44 -28 47 -38 3 -12 18 -23 38
-29 27 -6 35 -14 37 -35 3 -22 8 -27 30 -27 57 0 103 -20 113 -50 9 -25 16
-28 74 -35 53 -5 68 -11 83 -32 16 -22 31 -27 113 -38 87 -11 142 -31 177 -62
7 -8 39 -13 72 -13 48 0 61 -4 70 -19 6 -12 10 -135 10 -331 0 -287 1 -311 18
-316 36 -11 47 -22 50 -48 3 -26 5 -26 78 -26 l74 0 0 30 c0 25 5 31 33 38
l32 8 5 320 c3 175 9 325 13 332 5 7 31 12 67 12 33 0 65 5 72 13 35 31 90 51
177 62 82 11 97 16 113 38 15 21 30 27 83 32 58 7 65 10 74 35 10 30 56 50
113 50 22 0 27 5 30 27 2 21 10 29 37 35 20 6 35 17 38 29 3 10 24 27 47 38
24 11 85 62 149 127 85 86 107 114 107 136 0 24 5 30 30 34 24 5 31 13 36 40
4 24 13 35 35 43 21 7 29 17 29 33 0 53 21 99 49 109 25 9 29 16 37 77 7 55
13 69 31 77 26 11 31 26 39 128 7 81 20 107 55 107 18 0 19 11 19 320 0 304
-1 320 -18 320 -27 0 -52 32 -52 65 0 16 -5 57 -11 91 -8 48 -17 67 -34 78
-19 12 -25 28 -30 79 -6 57 -10 64 -34 74 -24 9 -30 19 -42 73 -10 45 -19 65
-34 72 -21 9 -45 74 -45 117 0 13 -9 21 -30 26 -25 5 -30 12 -30 35 0 42 -26
95 -53 107 -15 7 -26 23 -30 42 -4 19 -16 35 -30 42 -18 8 -29 26 -40 69 -14
49 -21 59 -46 68 -22 8 -32 20 -39 43 -6 24 -15 35 -33 39 -18 4 -25 13 -27
38 -2 21 -13 38 -32 52 -18 13 -36 40 -47 71 -15 41 -23 51 -48 57 -23 6 -31
15 -33 36 -3 20 -11 30 -32 38 -20 6 -31 19 -35 39 -5 22 -14 31 -38 37 -27 7
-33 14 -37 42 -4 25 -11 36 -25 38 -28 6 -43 20 -47 45 -2 13 -13 23 -28 27
-17 4 -28 16 -36 40 -9 29 -17 36 -43 38 -25 3 -32 9 -39 35 -5 21 -16 33 -32
37 -13 3 -31 19 -40 35 -11 20 -26 31 -43 33 -18 2 -27 9 -27 22 0 35 -12 49
-45 56 -25 4 -36 13 -44 35 -7 20 -17 29 -31 29 -36 0 -100 38 -100 60 0 18
-7 20 -85 20 -78 0 -85 -2 -85 -20z m170 -355 c16 -8 38 -28 50 -45 12 -16 28
-30 36 -30 8 0 24 -15 35 -34 11 -19 31 -37 45 -40 16 -4 30 -19 40 -41 9 -22
23 -37 39 -41 15 -4 28 -16 31 -30 4 -14 19 -31 35 -40 16 -8 29 -21 29 -30 0
-8 21 -38 47 -65 26 -28 53 -63 60 -79 7 -19 19 -30 31 -30 21 0 32 -18 32
-55 0 -18 7 -24 35 -29 31 -6 35 -11 35 -37 0 -24 6 -32 29 -40 21 -7 33 -21
41 -43 6 -18 26 -51 44 -73 19 -21 36 -50 38 -63 2 -18 12 -27 36 -34 26 -7
32 -14 32 -37 0 -15 5 -31 11 -34 23 -15 69 -89 69 -112 0 -18 8 -28 30 -36
23 -9 30 -18 30 -38 0 -42 26 -94 54 -107 18 -8 26 -19 26 -36 0 -28 40 -106
58 -113 6 -3 12 -13 12 -23 0 -10 5 -41 12 -69 9 -40 16 -52 38 -60 26 -8 28
-14 37 -99 8 -75 15 -96 37 -122 l26 -32 0 -197 c0 -237 -5 -288 -31 -296 -21
-7 -24 -18 -36 -130 -7 -73 -10 -81 -35 -93 -28 -13 -48 -60 -48 -114 0 -23
-4 -28 -24 -28 -17 0 -27 -7 -31 -22 -20 -76 -30 -98 -46 -103 -31 -10 -49
-35 -49 -66 0 -24 -4 -29 -23 -29 -28 0 -47 -17 -47 -42 0 -10 -8 -21 -17 -24
-37 -11 -48 -22 -53 -50 -4 -25 -10 -29 -42 -32 -29 -2 -38 -9 -48 -31 -11
-27 -24 -34 -107 -56 -16 -4 -23 -14 -23 -31 0 -20 -5 -24 -27 -24 -55 0 -102
-20 -115 -48 -12 -25 -20 -28 -115 -41 -82 -11 -104 -17 -108 -31 -4 -14 -21
-20 -66 -25 -38 -5 -65 -3 -71 3 -14 14 -23 338 -13 465 5 79 10 99 23 103 36
11 47 22 52 50 4 24 11 30 40 34 31 4 35 9 38 38 3 26 8 32 26 32 27 0 46 18
46 42 0 10 8 21 18 24 36 11 47 22 52 50 4 22 12 30 34 34 28 5 39 16 50 53 3
9 14 17 24 17 24 0 42 19 42 46 0 18 6 23 33 26 29 3 32 6 35 39 3 30 8 37 35
45 l32 9 0 70 c0 69 -1 70 -27 73 -20 2 -28 10 -33 33 l-7 30 -71 -3 c-70 -3
-72 -4 -75 -30 -3 -25 -8 -28 -38 -28 -35 0 -37 -3 -48 -52 -5 -20 -13 -27
-33 -30 -19 -2 -29 -10 -33 -27 -5 -24 -18 -34 -52 -45 -11 -3 -18 -15 -18
-29 0 -29 -16 -44 -50 -49 -17 -2 -26 -10 -28 -25 -2 -12 -10 -27 -18 -34 -12
-10 -18 -9 -32 5 -15 15 -17 68 -22 589 l-5 572 -30 5 c-24 4 -31 11 -35 35
-5 30 -5 30 -75 30 -70 0 -70 0 -75 -30 -4 -24 -11 -31 -35 -35 l-30 -5 -5
-357 c-3 -249 -8 -360 -16 -368 -20 -20 -49 -7 -52 22 -4 31 -18 45 -51 50
-18 2 -27 12 -33 35 -6 25 -14 32 -36 35 -20 2 -28 9 -30 28 -5 34 -20 50 -48
50 -19 0 -24 5 -24 24 0 28 -16 43 -50 48 -16 2 -26 11 -30 28 -5 23 -10 25
-77 28 -67 3 -72 1 -75 -19 -3 -22 -16 -32 -50 -43 -15 -4 -18 -17 -18 -75 l0
-70 33 -9 c25 -6 33 -15 37 -38 4 -23 11 -30 35 -34 23 -4 31 -11 33 -30 5
-34 20 -50 48 -50 19 0 24 -5 24 -24 0 -28 16 -43 50 -48 19 -2 26 -10 28 -30
3 -22 10 -30 35 -36 23 -6 33 -15 35 -33 5 -33 20 -49 48 -49 19 0 24 -5 24
-24 0 -28 16 -43 50 -48 18 -2 27 -12 34 -35 7 -25 14 -33 32 -33 13 0 28 -9
34 -21 16 -29 10 -983 -7 -1000 -18 -18 -131 -2 -138 21 -4 14 -26 20 -107 31
-96 13 -102 15 -118 44 -14 26 -24 31 -78 39 -55 9 -61 12 -64 35 -2 17 -10
27 -23 29 -58 8 -94 26 -105 53 -10 22 -19 29 -48 31 -32 3 -38 7 -42 32 -5
28 -16 39 -52 50 -10 3 -18 14 -18 24 0 25 -19 42 -47 42 -19 0 -23 5 -23 29
0 31 -18 56 -49 66 -16 5 -26 27 -46 103 -4 15 -14 22 -31 22 -20 0 -24 5 -24
28 0 54 -20 101 -48 114 -30 14 -40 53 -41 156 -1 45 -4 54 -25 63 -31 15 -36
53 -36 298 l0 196 29 42 c23 34 30 58 35 122 7 74 9 82 34 93 22 11 29 25 42
81 9 38 20 71 25 75 19 13 55 90 55 115 0 17 7 28 21 32 28 9 59 63 59 102 0
26 5 33 30 42 20 6 30 17 30 30 0 31 21 73 52 103 16 16 28 38 28 52 0 20 7
27 33 34 24 6 33 14 35 34 2 15 10 32 18 38 8 7 14 18 14 24 0 7 11 23 24 35
14 13 26 33 28 44 3 20 16 30 51 41 11 4 17 16 17 36 0 26 4 31 31 37 31 6 33
8 43 53 3 14 15 30 28 35 12 6 28 20 34 33 6 12 32 44 58 71 25 27 46 57 46
65 0 9 14 22 30 31 18 9 30 23 30 36 0 13 11 25 34 34 24 10 35 22 39 45 5 24
13 32 38 37 22 4 34 14 41 35 6 17 20 31 34 34 14 4 31 19 40 35 8 16 29 36
47 43 43 19 141 20 177 1z"/>
</g>
</svg>
